<?xml version="1.0" encoding="UTF-8"?>
<svg version="1.1" xmlns="http://www.w3.org/2000/svg" width="591" height="188">
<path d="M0 0 C195.03 0 390.06 0 591 0 C591 62.04 591 124.08 591 188 C395.97 188 200.94 188 0 188 C0 125.96 0 63.92 0 0 Z " fill="#F3F2F4" transform="translate(0,0)"/>
<path d="M0 0 C1.74312994 1.45673892 3.42683839 2.98604786 5.0625 4.5625 C9.32090373 8.22737791 11.73157539 9.5630096 17.375 9.3125 C18.36757812 9.23257812 19.36015625 9.15265625 20.3828125 9.0703125 C23 9 23 9 26.25 10.6875 C28.43429394 13.57388841 28.48736241 14.43585466 28 18 C26.73003626 20.65622317 25.16196638 23.09412776 23.5625 25.5625 C22.72577895 26.87332027 21.89358233 28.18704193 21.06640625 29.50390625 C20.5086853 30.36737671 20.5086853 30.36737671 19.93969727 31.24829102 C18.92328589 33.14300436 18.43677976 34.9017894 18 37 C18.59578857 37.27360352 19.19157715 37.54720703 19.80541992 37.82910156 C21.92142892 38.95807911 23.36968272 40.10697975 25.11328125 41.734375 C29.43822248 45.53210947 34.23270936 48.35212098 39.1875 51.25 C40.07630859 51.77851562 40.96511719 52.30703125 41.88085938 52.8515625 C44.24519567 54.25133485 46.60887181 55.64650088 49 57 C49.63945557 57.37181396 50.27891113 57.74362793 50.93774414 58.12670898 C58.80770167 61.4593523 70.76471886 60.42473732 79 59 C84.00757907 56.9542814 87.88751656 53.83838251 91.92578125 50.30859375 C95 48 95 48 97.5546875 47.7421875 C101.24125644 49.63847376 103.32540412 52.4300353 105.8125 55.6875 C106.31458984 56.30044922 106.81667969 56.91339844 107.33398438 57.54492188 C109.72792767 60.61633484 110.92574066 62.41546317 111.42578125 66.3515625 C111 69 111 69 109.375 70.6875 C107 72 107 72 104.078125 73.09765625 C99.94437228 75.65239937 99.03891002 78.32367625 97.375 82.75 C91.82432432 96.78378378 91.82432432 96.78378378 87 100 C83.4375 100.3125 83.4375 100.3125 80 100 C78 97 78 97 78 94 C72.39 94 66.78 94 61 94 C60.34 96.64 59.68 99.28 59 102 C56.76953125 104.1875 56.76953125 104.1875 53.8125 106 C52.6520969 106.73976341 51.49338828 107.48218829 50.3359375 108.2265625 C49.66916992 108.64711914 49.00240234 109.06767578 48.31542969 109.50097656 C43.43445053 112.66095252 38.7016131 116.0426916 33.9375 119.375 C32.92598877 120.07753906 31.91447754 120.78007812 30.87231445 121.50390625 C25.792656 124.98381667 25.792656 124.98381667 20.89282227 128.70556641 C18.24538021 130.51605754 16.12705404 130.21320823 13 130 C13.515625 130.845625 14.03125 131.69125 14.5625 132.5625 C16.31559761 136.75468995 15.9553654 138.59062124 15 143 C14.91492188 144.19882812 14.91492188 144.19882812 14.828125 145.421875 C14.41000573 149.48009143 13.92017586 152.08863808 10.9609375 155.01953125 C8.38051671 156.85298813 5.75618546 158.44472392 3 160 C2.18015625 160.51949219 1.3603125 161.03898438 0.515625 161.57421875 C-5.11369511 165.02170506 -5.11369511 165.02170506 -8.40258789 164.94116211 C-12.11000547 163.59779386 -13.06639717 161.07167451 -14.6640625 157.69140625 C-14.98281342 157.05065659 -15.30156433 156.40990692 -15.62997437 155.7497406 C-16.30220185 154.38950308 -16.96571084 153.02492723 -17.62109375 151.65649414 C-18.61076386 149.5921944 -19.62673346 147.5427413 -20.6484375 145.49414062 C-25.94555425 134.75551092 -29.16018957 124.75964512 -30.6875 112.875 C-30.88182617 111.44027344 -30.88182617 111.44027344 -31.08007812 109.9765625 C-31.39390751 107.65190038 -31.70043369 105.32653537 -32 103 C-33.06605469 103.22300781 -34.13210937 103.44601563 -35.23046875 103.67578125 C-39 104 -39 104 -41.36328125 102.85546875 C-42.00652344 102.30503906 -42.64976563 101.75460938 -43.3125 101.1875 C-43.96863281 100.64480469 -44.62476563 100.10210937 -45.30078125 99.54296875 C-48.96120103 96.21913929 -49.66087408 93.77063608 -51 89 C-51.66 88.01 -52.32 87.02 -53 86 C-53.2610788 82.97670744 -53.08815181 80.04123758 -53 77 C-48.38 77 -43.76 77 -39 77 C-39.66 75.55625 -40.32 74.1125 -41 72.625 C-43 68.25 -43 68.25 -43 66 C-41.02 65.505 -41.02 65.505 -39 65 C-37.96455826 66.90881434 -36.94709915 68.82739204 -35.9375 70.75 C-35.36902344 71.81734375 -34.80054687 72.8846875 -34.21484375 73.984375 C-33 77 -33 77 -34 81 C-38.95 81.33 -43.9 81.66 -49 82 C-48.01 83.65 -47.02 85.3 -46 87 C-43.37305578 87.41780879 -43.37305578 87.41780879 -41 87 C-41 90.11257569 -41.17361624 92.10765685 -42 95 C-39.45951467 97.19007356 -37.64932481 98.01872548 -34.2824707 97.92163086 C-33.29851318 97.81214111 -32.31455566 97.70265137 -31.30078125 97.58984375 C-30.30860596 97.48406006 -29.31643066 97.37827637 -28.29418945 97.26928711 C-27.15856567 97.13598999 -27.15856567 97.13598999 -26 97 C-25.95738037 97.78197754 -25.91476074 98.56395508 -25.87084961 99.36962891 C-24.41001476 121.81262245 -18.25361927 138.61992889 -7 158 C-6.33613281 157.66226563 -5.67226563 157.32453125 -4.98828125 156.9765625 C-4.10527344 156.53054687 -3.22226562 156.08453125 -2.3125 155.625 C-1.44238281 155.18414062 -0.57226562 154.74328125 0.32421875 154.2890625 C2.84772799 153.07335732 5.38737532 152.00739042 8 151 C7.67 149.80375 7.34 148.6075 7 147.375 C6.12109228 143.82797958 5.65838201 140.67239338 6 137 C6.66 136.01 7.32 135.02 8 134 C8.45394552 131.72087062 8.45394552 131.72087062 8.625 129.3125 C8.69976562 128.50425781 8.77453125 127.69601563 8.8515625 126.86328125 C8.90054688 126.24839844 8.94953125 125.63351563 9 125 C9.59425781 124.9484375 10.18851563 124.896875 10.80078125 124.84375 C18.16571479 123.83579642 22.56229642 120.833197 28.31152344 116.29492188 C31.68644591 113.70663547 35.20049528 111.30881636 38.6875 108.875 C41.46766646 106.92949085 44.23637445 104.96891263 47 103 C47.75877441 102.4730957 48.51754883 101.94619141 49.29931641 101.40332031 C50.0319873 100.88092773 50.7646582 100.35853516 51.51953125 99.8203125 C52.18702393 99.35125488 52.8545166 98.88219727 53.54223633 98.39892578 C54.02329834 97.93728027 54.50436035 97.47563477 55 97 C55 96.01 55 95.02 55 94 C53.01924973 92.63823419 51.01920337 91.30406884 49 90 C49 89.34 49 88.68 49 88 C46.03 89.32 43.06 90.64 40 92 C40 88.50236796 40.55709756 87.90164472 42.75 85.3125 C43.51570313 84.37857422 43.51570313 84.37857422 44.296875 83.42578125 C46 82 46 82 50 82 C51 83.33333333 52 84.66666667 53 86 C54.32 86 55.64 86 57 86 C56.67 84.35 56.34 82.7 56 81 C53.69 81 51.38 81 49 81 C49.33 79.35 49.66 77.7 50 76 C55.51084813 74.74753452 55.51084813 74.74753452 57.9375 76 C61.20530664 77.5843911 63.53817233 76.83561358 67 76 C68.03125 75.29875 69.0625 74.5975 70.125 73.875 C73 72 73 72 75.875 72.25 C76.57625 72.4975 77.2775 72.745 78 73 C78 75.31 78 77.62 78 80 C76.948125 79.95875 75.89625 79.9175 74.8125 79.875 C71.19390531 79.99364245 69.24777034 80.59555877 66 82 C64.68 82 63.36 82 62 82 C62 84.31 62 86.62 62 89 C64.22942748 88.85820962 66.45853628 88.71140302 68.6875 88.5625 C69.92886719 88.48128906 71.17023438 88.40007812 72.44921875 88.31640625 C75.38180337 88.05508683 78.13441617 87.65201621 81 87 C81.99 90.465 81.99 90.465 83 94 C83.99 94 84.98 94 86 94 C89.28229367 87.03036365 92.10855039 80.08002243 94.49609375 72.75 C96.43096286 69.21195362 98.27144854 68.38557783 102 67 C102.99 67 103.98 67 105 67 C103.49087042 62.01987239 100.44338151 58.75740058 97 55 C92.87485361 55.54252804 90.74079452 57.81971861 87.671875 60.4921875 C80.9367744 65.8751151 74.81879987 66.40397911 66.25 66.125 C65.59147034 66.11436523 64.93294067 66.10373047 64.25445557 66.09277344 C53.26139868 65.88465877 45.28862325 63.92088313 36.61132812 57.21826172 C34.07655114 55.3018167 31.33084778 53.72476076 28.625 52.0625 C14.41468727 42.3232843 14.41468727 42.3232843 12.0234375 35.015625 C11.99385988 31.20997129 12.99029415 29.84407281 15.3125 26.875 C19.66166588 21.51590341 19.66166588 21.51590341 21 15 C19.33388095 14.957279 17.66617115 14.95936168 16 15 C15.505 15.495 15.505 15.495 15 16 C11.95250616 16.35579877 10.47201094 16.3208268 7.90234375 14.57421875 C7.25394531 13.95160156 6.60554688 13.32898437 5.9375 12.6875 C1.50256741 7.94006024 1.50256741 7.94006024 -4.2890625 5.890625 C-5.44535156 6.06851562 -5.44535156 6.06851562 -6.625 6.25 C-7.40101562 6.35828125 -8.17703125 6.4665625 -8.9765625 6.578125 C-11.05671019 6.92200424 -11.05671019 6.92200424 -13 8 C-12.690625 8.680625 -12.38125 9.36125 -12.0625 10.0625 C-10.56943289 14.19039141 -9.4322765 18.16514105 -10.7578125 22.44921875 C-10.83773437 23.29097656 -10.91765625 24.13273437 -11 25 C-9.1543286 27.35460328 -9.1543286 27.35460328 -6.5625 29.3125 C-5.29599609 30.35857422 -5.29599609 30.35857422 -4.00390625 31.42578125 C-3.34261719 31.94527344 -2.68132813 32.46476562 -2 33 C-2.33 33.99 -2.66 34.98 -3 36 C-3.60328125 36.13277344 -4.2065625 36.26554687 -4.828125 36.40234375 C-7.92889243 37.25561249 -8.87712212 39.00530135 -10.75 41.5625 C-11.36359375 42.38878906 -11.9771875 43.21507812 -12.609375 44.06640625 C-13.06828125 44.70449219 -13.5271875 45.34257813 -14 46 C-15.65 45.67 -17.3 45.34 -19 45 C-17.59023295 41.96147295 -15.91129772 39.4060405 -13.875 36.75 C-13.33617187 36.04359375 -12.79734375 35.3371875 -12.2421875 34.609375 C-11.83226562 34.07828125 -11.42234375 33.5471875 -11 33 C-11.44472656 32.61070313 -11.88945313 32.22140625 -12.34765625 31.8203125 C-16.98219322 27.23856069 -16.98219322 27.23856069 -17.03515625 23.5546875 C-16.76026317 21.84249632 -16.46971101 20.13275045 -16.1640625 18.42578125 C-15.97288908 15.59914573 -16.47809233 14.53164638 -18 12.1875 C-20 9 -20 9 -20.25 6.25 C-18.21887048 2.59396686 -14.84878281 2.13906991 -11 1 C-9.948125 0.5875 -8.89625 0.175 -7.8125 -0.25 C-4.57597161 -1.11307424 -3.17855809 -1.00152792 0 0 Z " fill="#133A6B" transform="translate(53,12)"/>
<path d="M0 0 C3.04186585 2.79522808 3.94313002 4.26894139 4.26586914 8.41772461 C4.6703729 12.10809547 4.6703729 12.10809547 7.34155273 14.26000977 C8.36192627 14.89737061 9.3822998 15.53473145 10.43359375 16.19140625 C10.98555923 16.54460434 11.53752472 16.89780243 12.10621643 17.26170349 C13.87070357 18.38361406 15.65291987 19.47290328 17.4375 20.5625 C18.60220464 21.29678089 19.76563102 22.03309348 20.92773438 22.77148438 C27.55005612 26.95871117 34.26348607 30.99962402 41 35 C40.67 36.32 40.34 37.64 40 39 C41.11375 38.79375 42.2275 38.5875 43.375 38.375 C44.57125 38.25125 45.7675 38.1275 47 38 C47.66 38.66 48.32 39.32 49 40 C48.625 42.625 48.625 42.625 48 45 C45.625 44.75 45.625 44.75 43 44 C41.6875 41.9375 41.6875 41.9375 41 40 C36.2601599 42.41463552 33.25355728 43.96263667 31 49 C31 49.66 31 50.32 31 51 C30.071875 51.33 29.14375 51.66 28.1875 52 C24.35842817 54.40255487 23.91808229 55.94920151 22.8359375 60.16015625 C22 62 22 62 20.23828125 63.2890625 C17.45304702 64.17372678 15.67691789 63.82916989 12.8125 63.3125 C7.35758058 62.65703572 4.51905126 63.76712583 0.0703125 66.87109375 C-2.44134419 68.24065749 -4.18141148 68.20132775 -7 68 C-5.53824146 64.11305116 -3.69873837 62.99184772 0 61.25 C0.886875 60.82203125 1.77375 60.3940625 2.6875 59.953125 C5 59 5 59 7 59 C6.00976002 56.41795346 5.38870532 55.22265375 2.95288086 53.82739258 C2.13182861 53.51954834 1.31077637 53.2117041 0.46484375 52.89453125 C-0.42654297 52.55099609 -1.31792969 52.20746094 -2.23632812 51.85351562 C-3.6352832 51.33821289 -3.6352832 51.33821289 -5.0625 50.8125 C-6.90826609 50.11255704 -8.75335687 49.41082978 -10.59765625 48.70703125 C-11.82754272 48.25034058 -11.82754272 48.25034058 -13.08227539 47.78442383 C-15 47 -15 47 -16 46 C-17.66617115 45.95936168 -19.33388095 45.957279 -21 46 C-20.54771993 49.16596047 -19.98796096 52.03470078 -18.9375 55.0625 C-18.02751367 57.9137905 -17.82559225 60.03506817 -18 63 C-19.859375 62.87109375 -19.859375 62.87109375 -22 62 C-23.265625 59.34765625 -23.265625 59.34765625 -24.25 56.0625 C-24.75273438 54.44021484 -24.75273438 54.44021484 -25.265625 52.78515625 C-26 50 -26 50 -26 48 C-26.928125 47.9175 -27.85625 47.835 -28.8125 47.75 C-32 47 -32 47 -33.875 45.3125 C-35.30894828 42.36493966 -35.20302822 40.24845155 -35 37 C-35 31.89735238 -36.83370119 30.08983037 -39.78515625 26.12109375 C-40.18605469 25.42113281 -40.58695313 24.72117187 -41 24 C-40.505 22.515 -40.505 22.515 -40 21 C-39.01 21 -38.02 21 -37 21 C-34.90697556 23.49913366 -33.0918717 26.13742989 -31.23046875 28.8125 C-29.14795624 31.24233931 -29.14795624 31.24233931 -26.0390625 31.6484375 C-21.8811054 30.76126413 -20.71939905 28.98073672 -18.1875 25.625 C-17.03314453 24.12839844 -17.03314453 24.12839844 -15.85546875 22.6015625 C-14.02177552 20.17293496 -14.02177552 20.17293496 -13 18 C-12.34 18 -11.68 18 -11 18 C-11.37904208 14.70924004 -11.37904208 14.70924004 -13 12 C-14.93690416 11.95195277 -16.87534888 11.96323319 -18.8125 12 C-25.26244196 12.05707913 -31.58604168 11.64717417 -38 11 C-38 10.01 -38 9.02 -38 8 C-37.31897217 7.98541748 -36.63794434 7.97083496 -35.9362793 7.95581055 C-32.85277785 7.88137304 -29.77036433 7.78469917 -26.6875 7.6875 C-25.61564453 7.66494141 -24.54378906 7.64238281 -23.43945312 7.61914062 C-22.41142578 7.58369141 -21.38339844 7.54824219 -20.32421875 7.51171875 C-19.37635498 7.48553467 -18.42849121 7.45935059 -17.4519043 7.43237305 C-14.59035412 6.92776234 -13.797017 6.21944631 -12 4 C-7.79152876 -0.33600067 -6.09903524 -1.70772987 0 0 Z " fill="#12396B" transform="translate(62,54)"/>
<path d="M0 0 C6.2184375 -0.061875 6.2184375 -0.061875 12.5625 -0.125 C13.85615479 -0.14320801 15.14980957 -0.16141602 16.48266602 -0.18017578 C30.47840345 -0.24750997 30.47840345 -0.24750997 35.875 4.5625 C36.57625 5.366875 37.2775 6.17125 38 7 C38.495 7.495 38.495 7.495 39 8 C39.55419529 12.90599112 39.74119722 16.78937787 37.125 21.0625 C35 23 35 23 33 24 C33.48210937 24.38671875 33.96421875 24.7734375 34.4609375 25.171875 C35.09257812 25.69265625 35.72421875 26.2134375 36.375 26.75 C37.00148437 27.26046875 37.62796875 27.7709375 38.2734375 28.296875 C40.71728916 30.70755221 41.88718777 32.70735981 42.1875 36.1484375 C41.74639609 41.38654648 40.64453122 44.22570932 36.765625 47.80859375 C32.2663961 50.84457786 28.30870594 51.24092516 22.94921875 51.1953125 C21.14070435 51.18781982 21.14070435 51.18781982 19.2956543 51.18017578 C17.77496338 51.16196777 16.25427246 51.14375977 14.6875 51.125 C9.840625 51.08375 4.99375 51.0425 0 51 C0 34.17 0 17.34 0 0 Z " fill="#0C3264" transform="translate(202,78)"/>
<path d="M0 0 C3.3 0 6.6 0 10 0 C10 5.94 10 11.88 10 18 C11.65 17.01 13.3 16.02 15 15 C20.43684926 14.39590564 24.20061686 15.41571677 29 18 C33.21271003 22.3531337 33.17453823 27.02671296 33.25 32.875 C33.27578125 34.06867188 33.3015625 35.26234375 33.328125 36.4921875 C32.90591877 41.0057731 31.56058485 44.24798341 28.53515625 47.64453125 C19.33521589 54.94103567 13.51076485 51.67553824 0 51 C0 34.17 0 17.34 0 0 Z " fill="#374F70" transform="translate(481,78)"/>
<path d="M0 0 C3.3 0 6.6 0 10 0 C10.33 5.94 10.66 11.88 11 18 C12.98 17.01 14.96 16.02 17 15 C22.01613237 14.47198607 24.99512946 14.88510069 29 18 C32.30705465 21.44192475 32.35459816 24.05054017 32.29296875 28.734375 C32.2784668 30.67763672 32.2784668 30.67763672 32.26367188 32.66015625 C32.23860783 34.02344354 32.21321302 35.38672479 32.1875 36.75 C32.17244518 38.12889184 32.15875817 39.50779935 32.14648438 40.88671875 C32.11111909 44.25820915 32.06175904 47.62890654 32 51 C28.7 51 25.4 51 22 51 C21.97494385 50.2479126 21.9498877 49.4958252 21.92407227 48.72094727 C21.80849486 45.33460804 21.68559655 41.94857387 21.5625 38.5625 C21.52318359 37.37849609 21.48386719 36.19449219 21.44335938 34.97460938 C21.40146484 33.84990234 21.35957031 32.72519531 21.31640625 31.56640625 C21.27974854 30.52427979 21.24309082 29.48215332 21.20532227 28.40844727 C21.26484659 26.0500174 21.26484659 26.0500174 20 25 C15.34911285 24.69476038 15.34911285 24.69476038 11 26 C10.67 34.25 10.34 42.5 10 51 C6.7 51 3.4 51 0 51 C0 34.17 0 17.34 0 0 Z " fill="#0C3263" transform="translate(248,78)"/>
<path d="M0 0 C5.33514528 6.73913088 5 9.82348572 5 19 C-2.59 19 -10.18 19 -18 19 C-15.67748574 23.88495525 -15.67748574 23.88495525 -13 25 C-10.28239892 25.07181821 -7.59140612 25.09299506 -4.875 25.0625 C-3.74384766 25.05573242 -3.74384766 25.05573242 -2.58984375 25.04882812 C-0.72652873 25.03703499 1.13674555 25.01909942 3 25 C3.33 27.31 3.66 29.62 4 32 C-3.15566534 34.60206012 -11.65287693 35.56887593 -18.9375 32.875 C-23.08068847 30.338354 -25.79934105 27.40131789 -28 23 C-28.69459419 15.43884615 -29.10276036 8.73247704 -24.36328125 2.484375 C-17.73826216 -4.72911284 -8.25303557 -4.76136668 0 0 Z " fill="#394F6F" transform="translate(546,96)"/>
<path d="M0 0 C3.42945981 3.42945981 3.91949935 7.03526478 4.11352539 11.77075195 C4.10828857 12.75003662 4.10305176 13.72932129 4.09765625 14.73828125 C4.09443359 15.80498047 4.09121094 16.87167969 4.08789062 17.97070312 C4.07532227 19.62489258 4.07532227 19.62489258 4.0625 21.3125 C4.05798828 22.43462891 4.05347656 23.55675781 4.04882812 24.71289062 C4.03707313 27.4753151 4.02064077 30.23762998 4 33 C1.03 33 -1.94 33 -5 33 C-5 32.01 -5 31.02 -5 30 C-5.99 30.66 -6.98 31.32 -8 32 C-13.01201927 34.86111222 -17.19414998 34.62352223 -22.8125 33.375 C-25.97810161 31.38519328 -26.80586616 29.51606076 -28 26 C-28 21.67927389 -27.48730276 19.64495954 -24.875 16.1875 C-19.03869654 11.74683432 -13.03051729 11.71304011 -6 12 C-7.11854586 8.27385847 -7.11854586 8.27385847 -10 6 C-12.37783105 6.08838461 -14.75345146 6.24346421 -17.125 6.4375 C-18.40632813 6.53933594 -19.68765625 6.64117187 -21.0078125 6.74609375 C-21.99523437 6.82988281 -22.98265625 6.91367188 -24 7 C-24.33 4.69 -24.66 2.38 -25 0 C-16.16236923 -3.50998102 -8.55398101 -4.79022937 0 0 Z " fill="#374E6F" transform="translate(471,96)"/>
<path d="M0 0 C3.61717848 2.32532902 5.25464492 3.57643477 6.625 7.6875 C6.70815752 9.75248892 6.73235878 11.8200789 6.72265625 13.88671875 C6.71943359 15.09521484 6.71621094 16.30371094 6.71289062 17.54882812 C6.70032227 19.4427832 6.70032227 19.4427832 6.6875 21.375 C6.68298828 22.64923828 6.67847656 23.92347656 6.67382812 25.23632812 C6.66202873 28.38676564 6.64556597 31.53710949 6.625 34.6875 C3.655 34.6875 0.685 34.6875 -2.375 34.6875 C-2.705 33.6975 -3.035 32.7075 -3.375 31.6875 C-3.973125 32.161875 -4.57125 32.63625 -5.1875 33.125 C-9.16742496 35.96780354 -12.59789602 36.01137146 -17.375 35.6875 C-20.8943821 34.42583472 -22.78744333 33.60715392 -24.8125 30.4375 C-25.55986737 26.78370397 -25.34176272 24.29674748 -24.375 20.6875 C-20.9721641 16.1837466 -17.87370452 14.69559583 -12.375 13.6875 C-9.36565222 13.54831167 -6.38446352 13.56466475 -3.375 13.6875 C-4.49354586 9.96135847 -4.49354586 9.96135847 -7.375 7.6875 C-9.58638855 7.77561445 -11.79542185 7.9304784 -14 8.125 C-15.18851562 8.22683594 -16.37703125 8.32867187 -17.6015625 8.43359375 C-18.51679688 8.51738281 -19.43203125 8.60117188 -20.375 8.6875 C-20.705 6.3775 -21.035 4.0675 -21.375 1.6875 C-14.08282066 -1.2086847 -7.53044672 -2.92850706 0 0 Z " fill="#0B3162" transform="translate(369.375,94.3125)"/>
<path d="M0 0 C3.46330245 2.89038654 4.77936653 4.61337842 5.49560547 9.11474609 C5.71665466 12.87462433 5.79550083 16.60873911 5.8125 20.375 C5.83763672 21.68339844 5.86277344 22.99179688 5.88867188 24.33984375 C5.94743747 27.56019823 5.9837975 30.77919642 6 34 C3.03 34 0.06 34 -3 34 C-3.33 33.01 -3.66 32.02 -4 31 C-4.804375 31.66 -5.60875 32.32 -6.4375 33 C-10.46012581 35.66273103 -14.31626652 35.84474479 -19 35 C-24.64028777 32.07913669 -24.64028777 32.07913669 -26 28 C-26.35947102 24.117713 -26.38329136 21.73325303 -24.5625 18.25 C-18.89016909 13.26941676 -12.30059402 12.60178578 -5 13 C-5.34444881 10.52733235 -5.34444881 10.52733235 -6 8 C-10.77831836 5.61084082 -16.92270597 7.17105404 -22 8 C-22.33 5.69 -22.66 3.38 -23 1 C-16.59983864 -3.26677424 -6.86452488 -3.43226244 0 0 Z " fill="#0A3062" transform="translate(310,95)"/>
<path d="M0 0 C6.77464122 5.71355283 13.97719466 13.0463528 15.34375 22.1875 C15.364375 23.115625 15.385 24.04375 15.40625 25 C14.08625 25.33 12.76625 25.66 11.40625 26 C11.014375 25.278125 10.6225 24.55625 10.21875 23.8125 C7.90034797 20.21497961 5.2880979 16.94092395 1.40625 15 C1.73625 13.68 2.06625 12.36 2.40625 11 C1.84035156 10.51789062 1.27445312 10.03578125 0.69140625 9.5390625 C-0.04207031 8.90742187 -0.77554688 8.27578125 -1.53125 7.625 C-2.26214844 6.99851562 -2.99304688 6.37203125 -3.74609375 5.7265625 C-5.59375 4 -5.59375 4 -6.59375 2 C-7.7075 1.87625 -8.82125 1.7525 -9.96875 1.625 C-11.165 1.41875 -12.36125 1.2125 -13.59375 1 C-14.068125 0.319375 -14.5425 -0.36125 -15.03125 -1.0625 C-15.546875 -1.701875 -16.0625 -2.34125 -16.59375 -3 C-18.66765747 -3.1753833 -20.58735997 -3.06316563 -22.65625 -2.84765625 C-24.59375 -3 -24.59375 -3 -26.0390625 -4.51953125 C-27.51420637 -6.25886361 -27.51420637 -6.25886361 -29.8984375 -6.0390625 C-30.74664062 -5.90242188 -31.59484375 -5.76578125 -32.46875 -5.625 C-35.53010279 -5.19721271 -37.48003023 -4.9758043 -40.53125 -5.625 C-41.211875 -5.74875 -41.8925 -5.8725 -42.59375 -6 C-43.2434375 -5.2884375 -43.2434375 -5.2884375 -43.90625 -4.5625 C-45.59375 -3 -45.59375 -3 -47.484375 -2.90234375 C-48.20109375 -2.93457031 -48.9178125 -2.96679688 -49.65625 -3 C-50.955625 -3 -52.255 -3 -53.59375 -3 C-54.58375 -1.515 -54.58375 -1.515 -55.59375 0 C-56.66625 0.2475 -57.73875 0.495 -58.84375 0.75 C-63.28084735 2.22903245 -64.42048234 3.93934602 -67.171875 7.51171875 C-68.59375 9 -68.59375 9 -71.46875 9.4375 C-72.17 9.293125 -72.87125 9.14875 -73.59375 9 C-73.89734348 5.97453396 -73.96019894 4.49441523 -72.1171875 2.0078125 C-51.02384832 -16.47762293 -22.23396137 -17.14425937 0 0 Z " fill="#103769" transform="translate(155.59375,44)"/>
<path d="M0 0 C0 3.63 0 7.26 0 11 C3.3 11 6.6 11 10 11 C10 13.64 10 16.28 10 19 C6.7 19 3.4 19 0 19 C0.1404983 21.7920301 0.28715383 24.58349796 0.4375 27.375 C0.47681641 28.1690625 0.51613281 28.963125 0.55664062 29.78125 C0.68893404 34.02601221 0.68893404 34.02601221 2 38 C4.64 38 7.28 38 10 38 C10.33 40.64 10.66 43.28 11 46 C5.40057089 47.60353166 -0.57720395 48.00949835 -6 45.75 C-8.75633075 43.33821059 -9.87744952 41.28559412 -10.22705078 37.61816406 C-10.21657715 36.75932617 -10.20610352 35.90048828 -10.1953125 35.015625 C-10.18886719 34.08105469 -10.18242187 33.14648438 -10.17578125 32.18359375 C-10.15902344 31.21550781 -10.14226562 30.24742188 -10.125 29.25 C-10.11597656 28.26644531 -10.10695313 27.28289062 -10.09765625 26.26953125 C-10.07412785 23.84610593 -10.04125368 21.42317778 -10 19 C-11.65 19 -13.3 19 -15 19 C-15 16.36 -15 13.72 -15 11 C-13.35 11 -11.7 11 -10 11 C-10 7.7 -10 4.4 -10 1 C-6.56484998 0.37542727 -3.50935186 0 0 0 Z " fill="#0C3260" transform="translate(395,83)"/>
<path d="M0 0 C2.97 0 5.94 0 9 0 C9 13.86 9 27.72 9 42 C15.27 42 21.54 42 28 42 C28 44.64 28 47.28 28 50 C18.76 50 9.52 50 0 50 C0 33.5 0 17 0 0 Z " fill="#2F4A6E" transform="translate(413,79)"/>
<path d="M0 0 C0.99 0 1.98 0 3 0 C3.37511719 1.09957031 3.75023438 2.19914062 4.13671875 3.33203125 C4.65245792 4.82593146 5.16947317 6.31939151 5.6875 7.8125 C5.95570557 8.58770996 6.22391113 9.36291992 6.50024414 10.16162109 C8.07465744 14.63089342 9.82220249 18.87657944 11.9375 23.125 C14.09211125 27.61949162 14.38040341 30.22168052 13 35 C8.16837675 33.87689579 3.62394715 32.08611401 -1 30.3125 C-1.90234375 29.98572266 -2.8046875 29.65894531 -3.734375 29.32226562 C-9.36510162 27.14410732 -12.25605152 25.44892041 -15 20 C-13.72271509 17.28614002 -12.3291531 14.96735062 -10.46875 12.6171875 C-9.98792969 12.00746094 -9.50710937 11.39773437 -9.01171875 10.76953125 C-8.51285156 10.14433594 -8.01398437 9.51914063 -7.5 8.875 C-7.00113281 8.24207031 -6.50226562 7.60914062 -5.98828125 6.95703125 C-4.064186 4.52740963 -2.1938523 2.1938523 0 0 Z " fill="#F0F0F3" transform="translate(57,70)"/>
<path d="M0 0 C-1.79973021 5.52917115 -5.40548125 8.98781184 -9.296875 13.18359375 C-11.31894766 15.8994895 -11.31894766 15.8994895 -10.71875 19.11328125 C-8.45842002 22.90960819 -5.69138604 24.1386464 -1.75 25.75 C-1.09386719 26.04003906 -0.43773437 26.33007812 0.23828125 26.62890625 C4.09264045 28.30704674 7.99006984 29.72977368 12 31 C10.68 32.32 9.36 33.64 8 35 C5.51956646 34.02394493 3.04064915 33.04432337 0.5625 32.0625 C-0.14455078 31.78470703 -0.85160156 31.50691406 -1.58007812 31.22070312 C-6.88671875 29.11328125 -6.88671875 29.11328125 -8 28 C-9.66617115 27.95936168 -11.33388095 27.957279 -13 28 C-12.54771993 31.16596047 -11.98796096 34.03470078 -10.9375 37.0625 C-10.02751367 39.9137905 -9.82559225 42.03506817 -10 45 C-11.859375 44.87109375 -11.859375 44.87109375 -14 44 C-15.265625 41.34765625 -15.265625 41.34765625 -16.25 38.0625 C-16.75273438 36.44021484 -16.75273438 36.44021484 -17.265625 34.78515625 C-18 32 -18 32 -18 30 C-18.928125 29.9175 -19.85625 29.835 -20.8125 29.75 C-24 29 -24 29 -25.875 27.3125 C-27.30894828 24.36493966 -27.20302822 22.24845155 -27 19 C-27 13.89735238 -28.83370119 12.08983037 -31.78515625 8.12109375 C-32.18605469 7.42113281 -32.58695313 6.72117187 -33 6 C-32.67 5.01 -32.34 4.02 -32 3 C-31.01 3 -30.02 3 -29 3 C-26.90697556 5.49913366 -25.0918717 8.13742989 -23.23046875 10.8125 C-21.14687171 13.25915378 -21.14687171 13.25915378 -17.9921875 13.578125 C-14.23673424 12.85252829 -13.27425935 11.72492977 -10.9375 8.75 C-3.73080709 0 -3.73080709 0 0 0 Z " fill="#0F386B" transform="translate(54,72)"/>
<path d="M0 0 C3.3 0 6.6 0 10 0 C10 16.83 10 33.66 10 51 C6.7 51 3.4 51 0 51 C0 34.17 0 17.34 0 0 Z " fill="#334969" transform="translate(556,78)"/>
<path d="M0 0 C3.55737844 1.29416052 6.38920457 2.82778775 9.4375 5.0625 C13.61888926 8.05457195 17.86333212 10.90837836 22.1875 13.6875 C22.75718506 14.05560791 23.32687012 14.42371582 23.91381836 14.80297852 C27.87257483 17.33911937 31.90469921 19.69476716 36 22 C35.8203125 24.2890625 35.8203125 24.2890625 35 27 C30.56858516 30.60339961 25.85467088 33 20.125 33 C19.09375 32.67 18.0625 32.34 17 32 C16.16428467 31.7625708 15.32856934 31.5251416 14.4675293 31.28051758 C11.15650595 29.56227107 10.70042434 27.96540039 9.39453125 24.51171875 C8.96849609 23.41279297 8.54246094 22.31386719 8.10351562 21.18164062 C7.67748047 20.02857422 7.25144531 18.87550781 6.8125 17.6875 C6.37486328 16.54603516 5.93722656 15.40457031 5.48632812 14.22851562 C4.6711525 12.09910267 3.86345005 9.96680304 3.06567383 7.83081055 C2.07750172 5.20587226 1.05132956 2.60018722 0 0 Z " fill="#F1F1F3" transform="translate(63,70)"/>
<path d="M0 0 C0 3.3 0 6.6 0 10 C-2.27864583 10.42317708 -4.55729167 10.84635417 -6.8359375 11.26953125 C-9.35820641 11.87544942 -9.35820641 11.87544942 -11 15 C-11.36576054 17.31923274 -11.36576054 17.31923274 -11.4140625 19.88671875 C-11.47207031 21.2934082 -11.47207031 21.2934082 -11.53125 22.72851562 C-11.5621875 23.70498047 -11.593125 24.68144531 -11.625 25.6875 C-11.68300781 27.16959961 -11.68300781 27.16959961 -11.7421875 28.68164062 C-11.83645399 31.1207861 -11.9193159 33.56036747 -12 36 C-15.3 36 -18.6 36 -22 36 C-22 24.45 -22 12.9 -22 1 C-19.03 1 -16.06 1 -13 1 C-12.67 2.32 -12.34 3.64 -12 5 C-11.3503125 4.0409375 -11.3503125 4.0409375 -10.6875 3.0625 C-7.7087426 -0.57820349 -4.40305171 -0.09784559 0 0 Z " fill="#0C3263" transform="translate(344,93)"/>
<path d="M0 0 C14.85 0 29.7 0 45 0 C45 2.31 45 4.62 45 7 C44.34 7 43.68 7 43 7 C43 5.68 43 4.36 43 3 C29.8 3 16.6 3 3 3 C3 9.27 3 15.54 3 22 C17.19 22 31.38 22 46 22 C46 23.32 46 24.64 46 26 C30.82 26 15.64 26 0 26 C0 22.37 0 18.74 0 15 C-4.29 15 -8.58 15 -13 15 C-13 14.01 -13 13.02 -13 12 C-8.71 12 -4.42 12 0 12 C0 8.04 0 4.08 0 0 Z " fill="#254572" transform="translate(86,137)"/>
<path d="M0 0 C5.61 0 11.22 0 17 0 C17 5.28 17 10.56 17 16 C11.39 16 5.78 16 0 16 C0 10.72 0 5.44 0 0 Z " fill="#FD982B" transform="translate(5,56)"/>
<path d="M0 0 C2.90412398 3.02083819 3.45405758 5.29693951 3.5 9.4375 C3.37841211 13.39174958 3.14376575 14.77781657 0.9375 18.1875 C-2.65972363 20.40706352 -4.84339162 20.47960866 -9 20 C-11.11027611 17.88972389 -10.276952 13.52571663 -10.3125 10.625 C-10.34150391 9.84382813 -10.37050781 9.06265625 -10.40039062 8.2578125 C-10.46426631 2.51882753 -10.46426631 2.51882753 -8.171875 -0.04296875 C-5.04515537 -1.42074988 -3.21937306 -1.02745949 0 0 Z " fill="#F0F0F2" transform="translate(501,102)"/>
<path d="M0 0 C11.39516388 -0.27458226 11.39516388 -0.27458226 16 2 C18 4 18 4 18.3125 6.9375 C18 10 18 10 16.6875 11.8125 C11.84241582 15.22200368 5.62878851 14.06052461 0 14 C0 9.38 0 4.76 0 0 Z " fill="#ECEDEF" transform="translate(214,107)"/>
<path d="M0 0 C1.75 1.0625 1.75 1.0625 2.75 3.0625 C3.24055907 7.39577174 3.22744439 9.38250344 0.6875 13 C-2.25 15.0625 -2.25 15.0625 -5.75 15.75 C-9.25 15.0625 -9.25 15.0625 -12.25 12.5 C-14.25 9.0625 -14.25 9.0625 -14.25 5.375 C-12.89770642 0.89552752 -12.89770642 0.89552752 -10.25 -0.9375 C-6.28229388 -2.26006871 -3.80837492 -1.58682288 0 0 Z " fill="#3E9E51" transform="translate(50.25,119.9375)"/>
<path d="M0 0 C14.85 0 29.7 0 45 0 C45 2.31 45 4.62 45 7 C44.34 7 43.68 7 43 7 C43 5.68 43 4.36 43 3 C29.47 3 15.94 3 2 3 C2 6.63 2 10.26 2 14 C1 15 1 15 -2.16015625 15.09765625 C-4.09181641 15.08025391 -4.09181641 15.08025391 -6.0625 15.0625 C-7.35285156 15.05347656 -8.64320312 15.04445312 -9.97265625 15.03515625 C-10.97167969 15.02355469 -11.97070312 15.01195312 -13 15 C-13 14.01 -13 13.02 -13 12 C-8.71 12 -4.42 12 0 12 C0 8.04 0 4.08 0 0 Z " fill="#123463" transform="translate(86,137)"/>
<path d="M0 0 C1.8975 -0.061875 3.795 -0.12375 5.75 -0.1875 C7.35101563 -0.23970703 7.35101563 -0.23970703 8.984375 -0.29296875 C12.34613734 0.03362733 13.67993356 0.57472768 16 3 C16.4375 6.5625 16.4375 6.5625 16 10 C10.85913339 13.42724441 5.99202204 13.1015597 0 13 C0 8.71 0 4.42 0 0 Z " fill="#E1E3E8" transform="translate(214,87)"/>
<path d="M0 0 C1.80164108 0.0001133 1.80164108 0.0001133 3.63967896 0.00022888 C4.94178314 0.00539017 6.24388733 0.01055145 7.58544922 0.01586914 C8.92780505 0.01773401 10.27016156 0.01915759 11.61251831 0.02015686 C15.14709347 0.02397661 18.68162759 0.03380227 22.21618652 0.04486084 C25.82234136 0.05508661 29.42850282 0.05965698 33.03466797 0.06469727 C40.11150768 0.07542501 47.18831952 0.09249494 54.26513672 0.11352539 C54.26513672 1.10352539 54.26513672 2.09352539 54.26513672 3.11352539 C34.13513672 3.11352539 14.00513672 3.11352539 -6.73486328 3.11352539 C-7.06486328 2.45352539 -7.39486328 1.79352539 -7.73486328 1.11352539 C-5.05387275 -0.22696987 -3.00175122 -0.00627981 0 0 Z " fill="#0C3062" transform="translate(113.73486328125,125.886474609375)"/>
<path d="M0 0 C0.66 0 1.32 0 2 0 C6.39468475 13.10557773 6.50010042 27.65586714 3 41 C2.34 41 1.68 41 1 41 C0.67 27.47 0.34 13.94 0 0 Z " fill="#385278" transform="translate(171,74)"/>
<path d="M0 0 C11.88 0 23.76 0 36 0 C36 0.99 36 1.98 36 3 C24.12 3 12.24 3 0 3 C0 2.01 0 1.02 0 0 Z " fill="#314D76" transform="translate(132,119)"/>
<path d="M0 0 C3.96 0 7.92 0 12 0 C12 2.64 12 5.28 12 8 C8.04 8 4.08 8 0 8 C0 5.36 0 2.72 0 0 Z " fill="#50A95C" transform="translate(137,148)"/>
<path d="M0 0 C3.38250671 3.83141964 4.93570203 8.36249765 6.75 13.0625 C7.07871094 13.87783203 7.40742187 14.69316406 7.74609375 15.53320312 C8.05160156 16.31759766 8.35710937 17.10199219 8.671875 17.91015625 C8.9512793 18.62308838 9.23068359 19.33602051 9.51855469 20.07055664 C10 22 10 22 9 25 C8.01 25 7.02 25 6 25 C2.90895131 17.03168187 -0.11411065 9.04502114 -3 1 C-2.01 0.67 -1.02 0.34 0 0 Z " fill="#1D416E" transform="translate(63,71)"/>
<path d="M0 0 C0.19916016 1.04800781 0.19916016 1.04800781 0.40234375 2.1171875 C0.57894531 3.02726562 0.75554687 3.93734375 0.9375 4.875 C1.11152344 5.77992187 1.28554687 6.68484375 1.46484375 7.6171875 C1.89963701 9.99956317 1.89963701 9.99956317 3 12 C0.625 12.1875 0.625 12.1875 -2 12 C-4 9 -4 9 -4 6 C-8.95 6 -13.9 6 -19 6 C-19 5.67 -19 5.34 -19 5 C-12.565 4.505 -12.565 4.505 -6 4 C-7.81115956 2.18884044 -10.61278227 2.61800552 -13.0625 2.4375 C-14.16722656 2.35371094 -15.27195312 2.26992187 -16.41015625 2.18359375 C-17.26480469 2.12300781 -18.11945313 2.06242187 -19 2 C-19 1.67 -19 1.34 -19 1 C-17.64455078 0.90912109 -17.64455078 0.90912109 -16.26171875 0.81640625 C-14.49248047 0.69072266 -14.49248047 0.69072266 -12.6875 0.5625 C-10.92986328 0.44068359 -10.92986328 0.44068359 -9.13671875 0.31640625 C-1.39388145 -0.46462715 -1.39388145 -0.46462715 0 0 Z " fill="#2D4E79" transform="translate(135,100)"/>
<path d="M0 0 C10.23 0 20.46 0 31 0 C31 0.99 31 1.98 31 3 C20.77 3 10.54 3 0 3 C0 2.01 0 1.02 0 0 Z " fill="#28496F" transform="translate(137,141)"/>
<path d="M0 0 C10.23 0 20.46 0 31 0 C31 0.99 31 1.98 31 3 C20.77 3 10.54 3 0 3 C0 2.01 0 1.02 0 0 Z " fill="#354F74" transform="translate(137,134)"/>
<path d="M0 0 C3.63 0 7.26 0 11 0 C11 2.64 11 5.28 11 8 C7.37 8 3.74 8 0 8 C0 5.36 0 2.72 0 0 Z " fill="#D78551" transform="translate(122,148)"/>
<path d="M0 0 C-0.25561323 2.3431213 -0.59270772 4.67843403 -1 7 C-4.21451269 8.60725635 -7.43612536 8.05748185 -11 8 C-11.33 6.35 -11.66 4.7 -12 3 C-7.89542386 0.01485372 -5.02254631 -0.2954439 0 0 Z " fill="#E6E7EB" transform="translate(306,114)"/>
<path d="M0 0 C-0.25561323 2.3431213 -0.59270772 4.67843403 -1 7 C-4.21451269 8.60725635 -7.43612536 8.05748185 -11 8 C-11.33 6.35 -11.66 4.7 -12 3 C-7.89542386 0.01485372 -5.02254631 -0.2954439 0 0 Z " fill="#EAEBEE" transform="translate(366,114)"/>
<path d="M0 0 C0.99 0.66 1.98 1.32 3 2 C3.33 3.65 3.66 5.3 4 7 C-0.62 7 -5.24 7 -10 7 C-9.34 5.02 -8.68 3.04 -8 1 C-5.22899606 -0.38550197 -3.0665294 -0.1877467 0 0 Z " fill="#EFEFF0" transform="translate(538,101)"/>
<path d="M0 0 C-0.25561323 2.3431213 -0.59270772 4.67843403 -1 7 C-3.95664519 8.4783226 -6.74229737 8.06032783 -10 8 C-11.125 3.25 -11.125 3.25 -10 1 C-6.70581806 -0.22006738 -3.47634765 -0.0790079 0 0 Z " fill="#EDEDEF" transform="translate(465,114)"/>
<path d="M0 0 C7.92 0 15.84 0 24 0 C24 0.66 24 1.32 24 2 C18.41558177 3.94305123 13.92055462 4.12697555 8.0625 3.625 C7.28326172 3.56828125 6.50402344 3.5115625 5.70117188 3.453125 C3.79993361 3.31315654 1.89981314 3.15813968 0 3 C0 2.01 0 1.02 0 0 Z " fill="#174073" transform="translate(24,62)"/>
<path d="M0 0 C3.0625 0.1875 3.0625 0.1875 5.0625 2.1875 C4.50694444 6.74305556 4.50694444 6.74305556 3.0625 8.1875 C0.625 8.375 0.625 8.375 -1.9375 8.1875 C-3.9375 6.1875 -3.9375 6.1875 -4.125 3.625 C-3.8509967 0.06295712 -3.62735131 0.23153306 0 0 Z " fill="#E9EBEE" transform="translate(76.9375,104.8125)"/>
<path d="M0 0 C4.56564893 1.54677359 6.61686507 5.15236854 9.25 8.9375 C9.70890625 9.57107422 10.1678125 10.20464844 10.640625 10.85742188 C14 15.61153739 14 15.61153739 14 19 C9.43435107 17.45322641 7.38313493 13.84763146 4.75 10.0625 C4.29109375 9.42892578 3.8321875 8.79535156 3.359375 8.14257812 C0 3.38846261 0 3.38846261 0 0 Z " fill="#254670" transform="translate(93,48)"/>
<path d="M0 0 C3.10235032 2.06823355 3.51396364 2.5911225 4.82421875 5.84375 C5.13037109 6.59527344 5.43652344 7.34679688 5.75195312 8.12109375 C6.06068359 8.90613281 6.36941406 9.69117188 6.6875 10.5 C7.00783203 11.28503906 7.32816406 12.07007813 7.65820312 12.87890625 C10 18.70094283 10 18.70094283 10 21 C8.203125 20.4609375 8.203125 20.4609375 6 19 C4.73426443 16.52078401 3.71160191 14.21543779 2.75 11.625 C2.3478125 10.61566406 2.3478125 10.61566406 1.9375 9.5859375 C0.61081801 6.1473944 0 3.73203935 0 0 Z " fill="#25456E" transform="translate(104,45)"/>
<path d="M0 0 C0.66 0 1.32 0 2 0 C2.50604924 2.39469729 3.00499517 4.79051717 3.5 7.1875 C3.64308594 7.86103516 3.78617187 8.53457031 3.93359375 9.22851562 C4.68069842 12.87509793 5.17352282 16.27648957 5 20 C4.01 20 3.02 20 2 20 C0.74158054 13.25846717 -0.26404456 6.86515862 0 0 Z " fill="#314D73" transform="translate(114,45)"/>
<path d="M0 0 C4.70588235 0.70588235 4.70588235 0.70588235 6 2 C6.125 4.5 6.125 4.5 6 7 C5 8 5 8 2.5625 8.1875 C0 8 0 8 -2 6 C-1.44444444 1.44444444 -1.44444444 1.44444444 0 0 Z " fill="#EAEBEF" transform="translate(55,58)"/>
<path d="M0 0 C0.66 0 1.32 0 2 0 C1.27610174 4.22273984 0.03122474 8.14353855 -1.375 12.1875 C-1.79523438 13.41855469 -2.21546875 14.64960937 -2.6484375 15.91796875 C-4 19 -4 19 -7 21 C-6.69196223 13.14503688 -3.46909516 6.95940803 0 0 Z " fill="#1F3F69" transform="translate(135,45)"/>
<path d="M0 0 C0.33 0.99 0.66 1.98 1 3 C-0.51171875 5.8125 -0.51171875 5.8125 -2.6875 9 C-3.39261719 10.051875 -4.09773437 11.10375 -4.82421875 12.1875 C-6.74962815 14.67635955 -8.38486927 16.29986986 -11 18 C-10.46809636 13.50745999 -8.76462153 10.89415476 -6.0625 7.3125 C-5.35222656 6.35988281 -4.64195312 5.40726563 -3.91015625 4.42578125 C-2 2 -2 2 0 0 Z " fill="#25426A" transform="translate(145,48)"/>
<path d="M0 0 C0.66 0 1.32 0 2 0 C1.48446121 6.49850211 0.53332291 12.66226532 -1 19 C-1.66 19 -2.32 19 -3 19 C-2.88534579 16.77027727 -2.75785234 14.54121247 -2.625 12.3125 C-2.55539063 11.07113281 -2.48578125 9.82976563 -2.4140625 8.55078125 C-2.03577906 5.30682228 -1.38020024 2.93432815 0 0 Z " fill="#2C4973" transform="translate(125,45)"/>
<path d="M0 0 C2.12046792 3.53411321 2.53199289 6.94393835 3 11 C1.68 10.67 0.36 10.34 -1 10 C-1.66 7.69 -2.32 5.38 -3 3 C-2.01 2.01 -1.02 1.02 0 0 Z " fill="#264A73" transform="translate(41,106)"/>
<path d="M0 0 C2.0625 0.4375 2.0625 0.4375 4 1 C4.33 2.65 4.66 4.3 5 6 C2.625 6.625 2.625 6.625 0 7 C-0.66 6.34 -1.32 5.68 -2 5 C-1.46428571 1.46428571 -1.46428571 1.46428571 0 0 Z " fill="#E3E6EB" transform="translate(106,92)"/>
<path d="M0 0 C2.875 0.3125 2.875 0.3125 6 1 C6.66 1.99 7.32 2.98 8 4 C7.01 4 6.02 4 5 4 C4.67 4.99 4.34 5.98 4 7 C2.35 6.67 0.7 6.34 -1 6 C-1.33 5.01 -1.66 4.02 -2 3 C-1.34 2.01 -0.68 1.02 0 0 Z " fill="#204574" transform="translate(56,53)"/>
<path d="M0 0 C1.18851563 0.00902344 2.37703125 0.01804687 3.6015625 0.02734375 C4.51679687 0.03894531 5.43203125 0.05054687 6.375 0.0625 C5.385 1.5475 5.385 1.5475 4.375 3.0625 C1.5546875 3.35546875 1.5546875 3.35546875 -1.75 3.25 C-3.39355469 3.20939453 -3.39355469 3.20939453 -5.0703125 3.16796875 C-5.91335937 3.13316406 -6.75640625 3.09835938 -7.625 3.0625 C-7.955 2.4025 -8.285 1.7425 -8.625 1.0625 C-5.74084117 -0.37957941 -3.20778472 -0.03144887 0 0 Z " fill="#183967" transform="translate(114.625,125.9375)"/>
<path d="M0 0 C0.66 0.33 1.32 0.66 2 1 C1.5155542 1.38518799 1.0311084 1.77037598 0.53198242 2.16723633 C-1.51075328 4.61103185 -1.42445595 6.16530538 -1.51171875 9.32421875 C-1.54716797 10.35224609 -1.58261719 11.38027344 -1.61914062 12.43945312 C-1.64169922 13.51130859 -1.66425781 14.58316406 -1.6875 15.6875 C-1.72166016 16.77095703 -1.75582031 17.85441406 -1.79101562 18.97070312 C-1.8735456 21.6470322 -1.94267937 24.32303159 -2 27 C-2.33 27 -2.66 27 -3 27 C-3.08676908 22.87513162 -3.14031295 18.75049616 -3.1875 14.625 C-3.21263672 13.449375 -3.23777344 12.27375 -3.26367188 11.0625 C-3.27333984 9.94101563 -3.28300781 8.81953125 -3.29296875 7.6640625 C-3.3086792 6.62717285 -3.32438965 5.5902832 -3.34057617 4.52197266 C-3.22818604 3.68972168 -3.1157959 2.8574707 -3 2 C-2.01 1.34 -1.02 0.68 0 0 Z " fill="#C5CCD5" transform="translate(261,102)"/>
<path d="M0 0 C0.99 0 1.98 0 3 0 C5.1875 3 5.1875 3 7 6 C6.01 6 5.02 6 4 6 C3.67 6.99 3.34 7.98 3 9 C0.9375 6.1875 0.9375 6.1875 -1 3 C-0.67 2.01 -0.34 1.02 0 0 Z " fill="#294C79" transform="translate(22,75)"/>
<path d="M0 0 C0.99 1.32 1.98 2.64 3 4 C-0.13498292 5.85776765 -2.37471432 6.20140476 -6 6 C-4.95125002 3.37812506 -4.35068687 2.20628639 -1.875 0.75 C-1.25625 0.5025 -0.6375 0.255 0 0 Z " fill="#1F3D6B" transform="translate(61,116)"/>
<path d="M0 0 C0.66 0 1.32 0 2 0 C2.33 3.3 2.66 6.6 3 10 C2.01 10.495 2.01 10.495 1 11 C-0.28317892 7.15046324 -0.06643637 4.05261865 0 0 Z " fill="#27446D" transform="translate(114,45)"/>
<path d="M0 0 C1.5625 1.8125 1.5625 1.8125 3 4 C2.67 4.99 2.34 5.98 2 7 C1.01 7.33 0.02 7.66 -1 8 C-1.66 5.69 -2.32 3.38 -3 1 C-2.01 0.67 -1.02 0.34 0 0 Z " fill="#2A4B75" transform="translate(63,71)"/>
<path d="M0 0 C3.35914922 2.23943282 3.81681636 3.26842083 5 7 C5 7.99 5 8.98 5 10 C2 9 2 9 0.8125 6.6875 C0 4 0 4 0 0 Z " fill="#1D3E6A" transform="translate(104,45)"/>
<path d="M0 0 C0.66 0.33 1.32 0.66 2 1 C0.71451591 2.33929505 -0.57858155 3.67128643 -1.875 5 C-2.59429687 5.7425 -3.31359375 6.485 -4.0546875 7.25 C-6 9 -6 9 -8 9 C-6.4169423 4.7257442 -3.49431596 2.73468206 0 0 Z " fill="#21426E" transform="translate(90,41)"/>
<path d="M0 0 C2.875 -0.1875 2.875 -0.1875 6 0 C6.66 0.99 7.32 1.98 8 3 C5.03 3 2.06 3 -1 3 C-0.67 2.01 -0.34 1.02 0 0 Z " fill="#022D64" transform="translate(122,102)"/>
<path d="M0 0 C2 1 2 1 2.75 2.9375 C2.8325 3.618125 2.915 4.29875 3 5 C2.34 5.66 1.68 6.32 1 7 C0.34 6.67 -0.32 6.34 -1 6 C-1.625 3.4375 -1.625 3.4375 -2 1 C-1.34 0.67 -0.68 0.34 0 0 Z " fill="#143969" transform="translate(65,77)"/>
<path d="M0 0 C0.66 0 1.32 0 2 0 C2.33 2.64 2.66 5.28 3 8 C2.01 7.67 1.02 7.34 0 7 C0 4.69 0 2.38 0 0 Z " fill="#2E4A6E" transform="translate(403,121)"/>
<path d="M0 0 C2.64 0.33 5.28 0.66 8 1 C4.86501708 2.85776765 2.62528568 3.20140476 -1 3 C-0.67 2.01 -0.34 1.02 0 0 Z " fill="#234775" transform="translate(37,63)"/>
<path d="M0 0 C0.33 0.66 0.66 1.32 1 2 C1.66 2.33 2.32 2.66 3 3 C2.03114628 4.68496298 1.03013277 6.35178756 0 8 C-0.33 8 -0.66 8 -1 8 C-0.67 5.36 -0.34 2.72 0 0 Z " fill="#314D72" transform="translate(129,58)"/>
</svg>
